<svg fill="#FFFFFF" xmlns="http://www.w3.org/2000/svg" viewBox="0 0 297 297" xml:space="preserve">
	<path d="M86.312,29.03c1.57,3.809,5.249,6.111,9.127,6.111c1.253,0,2.526-0.24,3.755-0.747c5.039-2.077,7.44-7.845,5.364-12.882
		l-0.296-0.718c-2.078-5.04-7.846-7.441-12.882-5.364c-5.039,2.076-7.44,7.845-5.364,12.882L86.312,29.03z"/>
	<path d="M197.806,34.394c1.23,0.507,2.502,0.747,3.755,0.747c3.878,0,7.557-2.302,9.127-6.111l0.296-0.718
		c2.076-5.038-0.326-10.806-5.364-12.882c-5.036-2.076-10.806,0.326-12.882,5.364l-0.296,0.718
		C190.366,26.55,192.767,32.318,197.806,34.394z"/>
	<path d="M210.688,267.97c-2.077-5.04-7.846-7.44-12.882-5.364c-5.039,2.077-7.44,7.845-5.364,12.882l0.296,0.718
		c1.57,3.809,5.249,6.111,9.127,6.111c1.253,0,2.526-0.24,3.755-0.747c5.039-2.077,7.44-7.845,5.364-12.882L210.688,267.97z"/>
	<path d="M99.194,262.606c-5.036-2.075-10.806,0.326-12.882,5.364l-0.296,0.718c-2.076,5.038,0.326,10.806,5.364,12.882
		c1.229,0.507,2.503,0.747,3.755,0.747c3.879,0,7.557-2.302,9.127-6.111l0.296-0.718
		C106.634,270.45,104.233,264.682,99.194,262.606z"/>
	<path d="M21.512,192.441l-0.718,0.296c-5.038,2.077-7.44,7.845-5.364,12.882c1.57,3.809,5.249,6.111,9.127,6.111
		c1.253,0,2.526-0.24,3.755-0.747l0.718-0.296c5.038-2.077,7.44-7.845,5.364-12.882C32.318,192.766,26.548,190.364,21.512,192.441z
		"/>
	<path d="M20.794,104.263l0.718,0.296c1.229,0.507,2.502,0.747,3.755,0.747c3.878,0,7.557-2.302,9.127-6.111
		c2.075-5.038-0.326-10.806-5.364-12.882l-0.718-0.296c-5.036-2.075-10.806,0.325-12.882,5.364
		C13.354,96.418,15.756,102.186,20.794,104.263z"/>
	<path d="M271.733,105.305c1.253,0,2.525-0.24,3.755-0.747l0.718-0.296c5.038-2.076,7.44-7.845,5.364-12.882
		c-2.077-5.039-7.845-7.441-12.882-5.364l-0.718,0.296c-5.039,2.077-7.44,7.845-5.364,12.882
		C264.176,103.003,267.854,105.305,271.733,105.305z"/>
	<path d="M276.206,192.737l-0.718-0.296c-5.037-2.076-10.806,0.326-12.882,5.364c-2.076,5.038,0.326,10.806,5.364,12.882
		l0.718,0.296c1.229,0.507,2.503,0.747,3.755,0.747c3.879,0,7.557-2.302,9.127-6.111
		C283.646,200.582,281.244,194.814,276.206,192.737z"/>
	<path d="M107.655,75.222c5.705-3.193,11.819-5.731,18.242-7.53l-8.373-20.333c-2.077-5.039-7.845-7.44-12.881-5.367
		c-5.039,2.076-7.442,7.843-5.367,12.881L107.655,75.222z"/>
	<path d="M255.008,104.644c-2.075-5.04-7.841-7.44-12.881-5.367l-20.348,8.379c3.193,5.705,5.731,11.819,7.53,18.242l20.333-8.372
		C254.679,115.451,257.082,109.684,255.008,104.644z"/>
	<path d="M148.5,64.575c3.34,0,6.628,0.218,9.867,0.6V9.867c0-5.449-4.418-9.867-9.867-9.867c-5.449,0-9.867,4.418-9.867,9.867
		v55.307C141.872,64.793,145.16,64.575,148.5,64.575z"/>
	<path d="M241.919,198.114c1.241,0.517,2.527,0.762,3.792,0.762c3.864,0,7.532-2.286,9.112-6.075
		c2.097-5.031-0.282-10.807-5.312-12.903l-20.298-8.458c-1.826,6.414-4.392,12.516-7.609,18.208L241.919,198.114z"/>
	<path d="M189.648,75.397l8.465-20.317c2.096-5.03-0.282-10.807-5.313-12.903c-5.027-2.099-10.808,0.282-12.903,5.313
		l-8.456,20.297C177.855,69.614,183.956,72.18,189.648,75.397z"/>
	<path d="M41.992,192.356c1.569,3.81,5.249,6.113,9.128,6.113c1.252,0,2.524-0.24,3.753-0.746l20.349-8.378
		c-3.193-5.705-5.731-11.819-7.53-18.242l-20.333,8.372C42.321,181.549,39.917,187.316,41.992,192.356z"/>
	<path d="M214.368,96.586l39.136-39.137c3.853-3.853,3.853-10.101,0-13.955c-3.854-3.852-10.1-3.852-13.955,0l-39.136,39.137
		C205.593,86.722,210.278,91.407,214.368,96.586z"/>
	<path d="M55.08,98.886c-5.032-2.099-10.809,0.283-12.903,5.312c-2.096,5.031,0.282,10.807,5.312,12.903l20.299,8.458
		c1.826-6.414,4.392-12.516,7.609-18.208L55.08,98.886z"/>
	<path d="M148.5,78.389c-38.66,0-70.112,31.451-70.112,70.111s31.452,70.111,70.112,70.111s70.111-31.451,70.111-70.111
		S187.16,78.389,148.5,78.389z"/>
	<path d="M189.344,221.778c-5.705,3.193-11.819,5.731-18.242,7.53l8.372,20.333c1.569,3.81,5.249,6.113,9.128,6.113
		c1.252,0,2.524-0.24,3.753-0.746c5.038-2.075,7.442-7.842,5.367-12.881L189.344,221.778z"/>
	<path d="M82.631,96.586c4.091-5.179,8.775-9.864,13.955-13.955L57.45,43.495c-3.854-3.852-10.1-3.852-13.955,0
		c-3.853,3.853-3.853,10.101,0,13.955L82.631,96.586z"/>
	<path d="M148.5,232.425c-3.34,0-6.628-0.218-9.867-0.6v55.307c0,5.449,4.418,9.867,9.867,9.867c5.449,0,9.867-4.418,9.867-9.867
		v-55.307C155.128,232.207,151.84,232.425,148.5,232.425z"/>
	<path d="M287.133,138.633h-55.307c0.381,3.239,0.6,6.527,0.6,9.867s-0.218,6.628-0.6,9.867h55.307
		c5.449,0,9.867-4.418,9.867-9.867S292.582,138.633,287.133,138.633z"/>
	<path d="M214.368,200.414c-4.091,5.179-8.775,9.864-13.955,13.955l39.136,39.137c1.927,1.926,4.452,2.89,6.977,2.89
		c2.525,0,5.05-0.964,6.977-2.89c3.853-3.853,3.853-10.101,0-13.955L214.368,200.414z"/>
	<path d="M107.351,221.603l-8.465,20.317c-2.096,5.03,0.282,10.807,5.313,12.903c1.24,0.517,2.526,0.762,3.791,0.762
		c3.864,0,7.533-2.286,9.112-6.076l8.457-20.297C119.145,227.386,113.043,224.82,107.351,221.603z"/>
	<path d="M64.575,148.5c0-3.34,0.218-6.628,0.6-9.867H9.867C4.418,138.633,0,143.051,0,148.5s4.418,9.867,9.867,9.867h55.307
		C64.793,155.128,64.575,151.84,64.575,148.5z"/>
	<path d="M82.631,200.414l-39.136,39.137c-3.853,3.853-3.853,10.101,0,13.955c1.927,1.926,4.452,2.89,6.977,2.89
		c2.526,0,5.05-0.964,6.977-2.89l39.136-39.137C91.407,210.278,86.722,205.594,82.631,200.414z"/>
</svg>
